<?xml version="1.0" standalone="no"?>
<!DOCTYPE svg PUBLIC "-//W3C//DTD SVG 20010904//EN"
 "http://www.w3.org/TR/2001/REC-SVG-20010904/DTD/svg10.dtd">
<svg version="1.0" xmlns="http://www.w3.org/2000/svg"
 width="260.000000pt" height="260.000000pt" viewBox="0 0 260.000000 260.000000"
 preserveAspectRatio="xMidYMid meet">
<metadata>
Created by potrace 1.11, written by Peter Selinger 2001-2013
</metadata>
<g transform="translate(0.000000,260.000000) scale(0.100000,-0.100000)"
fill="#000000" stroke="none">
<path d="M1265 2468 c-29 -16 -45 -39 -45 -66 0 -15 -14 -38 -37 -59 -31 -30
-42 -34 -75 -31 -34 3 -38 1 -38 -20 0 -21 4 -24 27 -19 32 6 64 -21 67 -57 1
-24 4 -25 38 -20 20 4 49 4 63 0 25 -6 25 -7 25 -114 l0 -107 -58 -2 c-31 -1
-68 -3 -82 -5 l-25 -3 -3 112 c-2 104 -1 112 15 107 16 -5 16 -4 2 5 -12 7
-24 7 -43 -2 -20 -9 -26 -19 -26 -44 0 -25 -11 -43 -48 -80 -47 -47 -72 -102
-72 -154 1 -22 2 -23 14 -6 18 24 26 21 26 -8 0 -77 70 -140 190 -170 107 -27
95 -35 -54 -35 -75 0 -146 -5 -157 -10 -22 -12 -26 -59 -7 -78 9 -9 -5 -12
-66 -12 l-78 0 4 -267 c4 -230 8 -278 25 -338 37 -128 99 -245 187 -348 48
-58 171 -159 228 -188 l40 -21 54 34 c136 84 252 210 325 350 81 159 91 209
96 516 l5 262 -78 0 c-61 0 -75 3 -66 12 19 19 15 66 -7 78 -11 5 -82 10 -157
10 -149 0 -161 8 -54 35 94 24 148 58 171 108 10 23 19 53 19 67 1 23 2 24 14
8 19 -25 26 -22 26 10 0 44 -45 127 -84 157 -30 23 -36 34 -36 64 0 29 -5 38
-26 48 -18 8 -32 9 -43 3 -14 -8 -14 -9 2 -10 16 0 17 -10 15 -107 l-3 -108
-30 4 c-16 2 -52 4 -80 5 l-50 1 -6 100 c-7 121 -1 129 80 121 65 -6 61 3 -6
13 l-48 7 27 18 c15 10 45 20 68 23 22 3 40 9 40 13 0 3 14 5 30 2 26 -4 30
-1 30 19 0 24 -1 24 -95 21 -52 -2 -95 0 -95 3 0 4 9 18 20 32 34 44 25 95
-21 118 -33 18 -47 18 -74 3z m63 -70 c-2 -14 -11 -24 -23 -25 -11 -2 -14 0
-7 3 6 3 12 14 12 25 0 10 5 19 11 19 6 0 9 -10 7 -22z m-70 -76 c2 -7 -6 -12
-17 -12 -21 0 -27 11 -14 24 9 9 26 2 31 -12z m-17 -92 c23 -19 23 -19 4 -20
-21 0 -45 17 -45 32 0 14 17 9 41 -12z m309 -212 c0 -20 -4 -40 -10 -43 -6 -4
-10 16 -10 52 0 41 3 54 10 43 5 -8 10 -32 10 -52z m-480 1 c0 -31 -4 -48 -10
-44 -5 3 -10 26 -10 51 0 24 5 44 10 44 6 0 10 -23 10 -51z m-9 -96 c9 -15 23
-18 96 -15 47 2 90 -1 95 -6 14 -14 -16 -66 -47 -80 -52 -24 -94 -15 -136 27
-25 25 -39 48 -39 65 0 30 15 34 31 9z m509 -9 c0 -17 -14 -40 -39 -65 -46
-46 -57 -48 -65 -11 -3 15 -9 38 -12 51 -7 22 -5 23 34 20 30 -3 43 0 51 13
16 26 31 22 31 -8z m-166 -12 c3 -5 8 -28 12 -51 l7 -43 -30 15 c-30 16 -58
61 -48 78 8 11 52 12 59 1z"/>
<path d="M813 557 l-38 -28 -22 27 -21 27 -81 -47 c-45 -27 -84 -52 -87 -57
-13 -21 108 -164 201 -236 59 -47 171 -113 190 -113 3 0 14 20 24 44 l19 43
74 -25 c137 -46 365 -40 495 14 l33 13 21 -49 21 -48 71 40 c107 61 193 133
264 223 35 43 63 83 63 87 0 3 -39 30 -86 59 l-86 52 -23 -29 -22 -28 -38 31
-38 31 -26 -31 c-123 -150 -338 -224 -531 -183 -108 23 -193 68 -272 145 l-67
66 -38 -28z"/>
</g>
</svg>
